<mxfile host="app.diagrams.net" agent="Mozilla/5.0 (Windows NT 10.0; Win64; x64) AppleWebKit/537.36 (KHTML, like Gecko) Chrome/129.0.0.0 Safari/537.36 Edg/129.0.0.0" version="24.7.17">
  <diagram name="Page-1" id="Qug62cxmey-qaUQhkRGi">
    <mxGraphModel dx="1042" dy="1734" grid="1" gridSize="10" guides="1" tooltips="1" connect="1" arrows="1" fold="1" page="1" pageScale="1" pageWidth="827" pageHeight="1169" math="0" shadow="0">
      <root>
        <mxCell id="0" />
        <mxCell id="1" parent="0" />
        <mxCell id="mNkXA_2sfwO2EeYy0qba-4" style="edgeStyle=orthogonalEdgeStyle;rounded=0;orthogonalLoop=1;jettySize=auto;html=1;entryX=0.5;entryY=0;entryDx=0;entryDy=0;" edge="1" parent="1" source="mNkXA_2sfwO2EeYy0qba-1" target="mNkXA_2sfwO2EeYy0qba-3">
          <mxGeometry relative="1" as="geometry" />
        </mxCell>
        <mxCell id="mNkXA_2sfwO2EeYy0qba-1" value="" style="ellipse;html=1;shape=endState;fillColor=#000000;strokeColor=none;" vertex="1" parent="1">
          <mxGeometry x="110" y="-1130" width="30" height="30" as="geometry" />
        </mxCell>
        <mxCell id="mNkXA_2sfwO2EeYy0qba-2" value="Diagramme Etat transitions du jeu" style="text;align=center;fontStyle=1;verticalAlign=middle;spacingLeft=3;spacingRight=3;strokeColor=none;rotatable=0;points=[[0,0.5],[1,0.5]];portConstraint=eastwest;html=1;" vertex="1" parent="1">
          <mxGeometry x="85" y="-1160" width="80" height="26" as="geometry" />
        </mxCell>
        <mxCell id="mNkXA_2sfwO2EeYy0qba-10" style="rounded=0;orthogonalLoop=1;jettySize=auto;html=1;entryX=0.25;entryY=0;entryDx=0;entryDy=0;" edge="1" parent="1" source="mNkXA_2sfwO2EeYy0qba-3" target="mNkXA_2sfwO2EeYy0qba-5">
          <mxGeometry relative="1" as="geometry" />
        </mxCell>
        <mxCell id="mNkXA_2sfwO2EeYy0qba-13" style="rounded=0;orthogonalLoop=1;jettySize=auto;html=1;entryX=0.25;entryY=0;entryDx=0;entryDy=0;" edge="1" parent="1" source="mNkXA_2sfwO2EeYy0qba-3" target="mNkXA_2sfwO2EeYy0qba-8">
          <mxGeometry relative="1" as="geometry" />
        </mxCell>
        <mxCell id="mNkXA_2sfwO2EeYy0qba-3" value="Nouvelle partie" style="rounded=1;whiteSpace=wrap;html=1;" vertex="1" parent="1">
          <mxGeometry x="65" y="-1070" width="120" height="60" as="geometry" />
        </mxCell>
        <mxCell id="mNkXA_2sfwO2EeYy0qba-5" value="Victoire&amp;nbsp;" style="rounded=1;whiteSpace=wrap;html=1;" vertex="1" parent="1">
          <mxGeometry x="20" y="-840" width="70" height="60" as="geometry" />
        </mxCell>
        <mxCell id="mNkXA_2sfwO2EeYy0qba-6" value="Défaite" style="rounded=1;whiteSpace=wrap;html=1;" vertex="1" parent="1">
          <mxGeometry x="160" y="-830" width="70" height="60" as="geometry" />
        </mxCell>
        <mxCell id="mNkXA_2sfwO2EeYy0qba-18" style="edgeStyle=orthogonalEdgeStyle;rounded=0;orthogonalLoop=1;jettySize=auto;html=1;exitX=0.5;exitY=0;exitDx=0;exitDy=0;entryX=1;entryY=0.25;entryDx=0;entryDy=0;" edge="1" parent="1" source="mNkXA_2sfwO2EeYy0qba-8" target="mNkXA_2sfwO2EeYy0qba-3">
          <mxGeometry relative="1" as="geometry" />
        </mxCell>
        <mxCell id="mNkXA_2sfwO2EeYy0qba-8" value="Abandon" style="rounded=1;whiteSpace=wrap;html=1;" vertex="1" parent="1">
          <mxGeometry x="290" y="-970" width="70" height="60" as="geometry" />
        </mxCell>
        <mxCell id="mNkXA_2sfwO2EeYy0qba-11" style="rounded=0;orthogonalLoop=1;jettySize=auto;html=1;exitX=0.5;exitY=1;exitDx=0;exitDy=0;entryX=0.397;entryY=-0.003;entryDx=0;entryDy=0;entryPerimeter=0;" edge="1" parent="1" source="mNkXA_2sfwO2EeYy0qba-3" target="mNkXA_2sfwO2EeYy0qba-6">
          <mxGeometry relative="1" as="geometry" />
        </mxCell>
        <mxCell id="mNkXA_2sfwO2EeYy0qba-12" value="Diagramme Etat transitions des cases" style="text;align=center;fontStyle=1;verticalAlign=middle;spacingLeft=3;spacingRight=3;strokeColor=none;rotatable=0;points=[[0,0.5],[1,0.5]];portConstraint=eastwest;html=1;" vertex="1" parent="1">
          <mxGeometry x="550" y="-1160" width="80" height="26" as="geometry" />
        </mxCell>
        <mxCell id="mNkXA_2sfwO2EeYy0qba-16" style="edgeStyle=orthogonalEdgeStyle;rounded=0;orthogonalLoop=1;jettySize=auto;html=1;entryX=0.5;entryY=0;entryDx=0;entryDy=0;" edge="1" parent="1" source="mNkXA_2sfwO2EeYy0qba-14" target="mNkXA_2sfwO2EeYy0qba-15">
          <mxGeometry relative="1" as="geometry" />
        </mxCell>
        <mxCell id="mNkXA_2sfwO2EeYy0qba-14" value="" style="ellipse;html=1;shape=endState;fillColor=#000000;strokeColor=none;" vertex="1" parent="1">
          <mxGeometry x="590" y="-1130" width="30" height="30" as="geometry" />
        </mxCell>
        <mxCell id="mNkXA_2sfwO2EeYy0qba-24" style="edgeStyle=orthogonalEdgeStyle;rounded=0;orthogonalLoop=1;jettySize=auto;html=1;entryX=0.5;entryY=0;entryDx=0;entryDy=0;" edge="1" parent="1" source="mNkXA_2sfwO2EeYy0qba-15" target="mNkXA_2sfwO2EeYy0qba-22">
          <mxGeometry relative="1" as="geometry" />
        </mxCell>
        <mxCell id="mNkXA_2sfwO2EeYy0qba-15" value="Case non révélée" style="rounded=1;whiteSpace=wrap;html=1;" vertex="1" parent="1">
          <mxGeometry x="545" y="-1070" width="120" height="60" as="geometry" />
        </mxCell>
        <mxCell id="mNkXA_2sfwO2EeYy0qba-19" value="toutes les cases sont révélées&amp;nbsp;" style="text;html=1;align=center;verticalAlign=middle;whiteSpace=wrap;rounded=0;" vertex="1" parent="1">
          <mxGeometry x="10" y="-955" width="60" height="30" as="geometry" />
        </mxCell>
        <mxCell id="mNkXA_2sfwO2EeYy0qba-20" value="le joueur clique sur une bombe" style="text;html=1;align=center;verticalAlign=middle;whiteSpace=wrap;rounded=0;" vertex="1" parent="1">
          <mxGeometry x="165" y="-925" width="60" height="30" as="geometry" />
        </mxCell>
        <mxCell id="mNkXA_2sfwO2EeYy0qba-21" value="le joueur lance une nvelle partie" style="text;html=1;align=center;verticalAlign=middle;whiteSpace=wrap;rounded=0;" vertex="1" parent="1">
          <mxGeometry x="250" y="-1030" width="60" height="30" as="geometry" />
        </mxCell>
        <mxCell id="mNkXA_2sfwO2EeYy0qba-22" value="Case avec un drapeau" style="rounded=1;whiteSpace=wrap;html=1;" vertex="1" parent="1">
          <mxGeometry x="460" y="-900" width="120" height="60" as="geometry" />
        </mxCell>
        <mxCell id="mNkXA_2sfwO2EeYy0qba-23" value="Case révélée : avec un numéro de 0 à 8" style="rounded=1;whiteSpace=wrap;html=1;" vertex="1" parent="1">
          <mxGeometry x="640" y="-900" width="120" height="60" as="geometry" />
        </mxCell>
        <mxCell id="mNkXA_2sfwO2EeYy0qba-25" style="edgeStyle=orthogonalEdgeStyle;rounded=0;orthogonalLoop=1;jettySize=auto;html=1;entryX=0.337;entryY=0.03;entryDx=0;entryDy=0;entryPerimeter=0;" edge="1" parent="1" source="mNkXA_2sfwO2EeYy0qba-15" target="mNkXA_2sfwO2EeYy0qba-23">
          <mxGeometry relative="1" as="geometry" />
        </mxCell>
        <mxCell id="mNkXA_2sfwO2EeYy0qba-26" value="le joueur place un drapeau" style="text;html=1;align=center;verticalAlign=middle;whiteSpace=wrap;rounded=0;" vertex="1" parent="1">
          <mxGeometry x="460" y="-970" width="60" height="30" as="geometry" />
        </mxCell>
        <mxCell id="mNkXA_2sfwO2EeYy0qba-27" value="le joueur clique sur la case ET la case n&#39;est pas une bombe" style="text;html=1;align=center;verticalAlign=middle;whiteSpace=wrap;rounded=0;" vertex="1" parent="1">
          <mxGeometry x="690" y="-970" width="120" height="30" as="geometry" />
        </mxCell>
      </root>
    </mxGraphModel>
  </diagram>
</mxfile>
